<svg xmlns="http://www.w3.org/2000/svg" xmlns:xlink="http://www.w3.org/1999/xlink" width="1280" zoomAndPan="magnify" viewBox="0 0 960 540.000001" height="720" preserveAspectRatio="xMidYMid meet" version="1.0"><defs><clipPath id="270467a486"><path d="M 0.886719 440.359375 L 959.113281 440.359375 L 959.113281 539 L 0.886719 539 Z M 0.886719 440.359375 " clip-rule="nonzero"/></clipPath><clipPath id="0916fa21ef"><path d="M 0.886719 440.359375 L 959.113281 440.359375 L 959.113281 514 L 0.886719 514 Z M 0.886719 440.359375 " clip-rule="nonzero"/></clipPath><clipPath id="a08b99da40"><path d="M 0.886719 440.359375 L 959.113281 440.359375 L 959.113281 529 L 0.886719 529 Z M 0.886719 440.359375 " clip-rule="nonzero"/></clipPath><clipPath id="5c0ccb10c7"><path d="M 0.886719 440.359375 L 959.113281 440.359375 L 959.113281 513 L 0.886719 513 Z M 0.886719 440.359375 " clip-rule="nonzero"/></clipPath><clipPath id="63e9dd751a"><path d="M 0.886719 0 L 959.113281 0 L 959.113281 441.101562 L 0.886719 441.101562 Z M 0.886719 0 " clip-rule="nonzero"/></clipPath></defs><g clip-path="url(#270467a486)"><path fill="#ffffff" d="M -50.453125 440.359375 L 1039.761719 440.359375 L 1039.761719 602.058594 L -50.453125 602.058594 Z M -50.453125 440.359375 " fill-opacity="1" fill-rule="nonzero"/></g><g clip-path="url(#0916fa21ef)"><path fill="#219ebc" d="M 0.886719 440.359375 L 0.886719 477.320312 C 39.046875 495.050781 83.605469 503.011719 127.054688 499.679688 C 183.238281 495.390625 235.917969 473.082031 292.1875 469.734375 C 351.152344 466.253906 410 483.214844 466.425781 497.890625 C 521.738281 512.265625 576.859375 517.757812 633.636719 508.335938 C 662.503906 503.546875 689.414062 494.089844 717.042969 484.90625 C 791.015625 460.320312 889.640625 428.949219 959.113281 482.257812 L 959.113281 440.359375 Z M 0.886719 440.359375 " fill-opacity="0.25" fill-rule="nonzero"/></g><g clip-path="url(#a08b99da40)"><path fill="#219ebc" d="M 0.886719 440.359375 L 0.886719 452.984375 C 11.269531 469.839844 22.957031 485.761719 38.96875 497.890625 C 80.269531 529.210938 132.644531 528.996094 180.21875 513.488281 C 205.09375 505.382812 228.203125 492.667969 251.824219 481.707031 C 284.496094 466.535156 319.480469 444.972656 356.292969 442.042969 C 385.246094 439.765625 412.910156 449.566406 435.027344 467.246094 C 460.394531 487.519531 484.792969 516.753906 517.777344 525.535156 C 550.070312 534.152344 582.738281 520.195312 612.90625 506.148438 C 643.074219 492.101562 672.921875 475.007812 706.269531 471.773438 C 753.964844 467.101562 796.726562 490.042969 841.140625 502.785156 C 865.253906 509.703125 888.253906 507.714844 910.683594 496.796875 C 928.59375 488.101562 949.011719 475.292969 959.113281 457.480469 L 959.113281 440.359375 Z M 0.886719 440.359375 " fill-opacity="0.5" fill-rule="nonzero"/></g><g clip-path="url(#5c0ccb10c7)"><path fill="#219ebc" d="M 0.886719 440.359375 L 0.886719 444.855469 C 120.609375 487.472656 251.695312 497.308594 380.847656 474.351562 C 415.183594 468.25 448.105469 458.285156 482.746094 453.222656 C 529.859375 446.332031 572.566406 462.996094 614.949219 481.492188 C 662.007812 502.019531 708.378906 516.410156 760.441406 512.226562 C 829.535156 506.636719 898.152344 475.726562 959.113281 444.503906 L 959.113281 440.359375 Z M 0.886719 440.359375 " fill-opacity="1" fill-rule="nonzero"/></g><g clip-path="url(#63e9dd751a)"><path fill="#219ebc" d="M -289.890625 -0.542969 C -289.890625 -35.25 -327.886719 -57.035156 -375.128906 -57.035156 L -2857.261719 -57.035156 L -2857.261719 441.109375 L 2277.480469 441.109375 L 2277.480469 -57.035156 L -204.652344 -57.035156 C -251.894531 -57.035156 -289.890625 -35.378906 -289.890625 -0.542969 Z M -289.890625 -0.542969 " fill-opacity="1" fill-rule="nonzero"/></g></svg>