<svg xmlns="http://www.w3.org/2000/svg" xmlns:xlink="http://www.w3.org/1999/xlink" width="1280" zoomAndPan="magnify" viewBox="0 0 960 540.000001" height="720" preserveAspectRatio="xMidYMid meet" version="1.0"><defs><clipPath id="0499b9835e"><path d="M 0.886719 0 L 959.113281 0 L 959.113281 72 L 0.886719 72 Z M 0.886719 0 " clip-rule="nonzero"/></clipPath><clipPath id="6a4a85bac9"><path d="M 0.886719 0 L 959.113281 0 L 959.113281 88 L 0.886719 88 Z M 0.886719 0 " clip-rule="nonzero"/></clipPath><clipPath id="faeef96890"><path d="M 0.886719 0 L 959.113281 0 L 959.113281 72 L 0.886719 72 Z M 0.886719 0 " clip-rule="nonzero"/></clipPath></defs><g clip-path="url(#0499b9835e)"><path fill="#219ebc" d="M 0.886719 -0.75 L 0.886719 36.214844 C 39.046875 53.941406 83.605469 61.902344 127.054688 58.574219 C 183.238281 54.285156 235.917969 31.976562 292.1875 28.628906 C 351.152344 25.148438 410 42.109375 466.425781 56.785156 C 521.738281 71.160156 576.859375 76.652344 633.636719 67.230469 C 662.503906 62.4375 689.414062 52.984375 717.042969 43.800781 C 791.015625 19.214844 889.640625 -12.160156 959.113281 41.148438 L 959.113281 -0.75 Z M 0.886719 -0.75 " fill-opacity="0.25" fill-rule="nonzero"/></g><g clip-path="url(#6a4a85bac9)"><path fill="#219ebc" d="M 0.886719 -0.75 L 0.886719 11.875 C 11.269531 28.734375 22.957031 44.65625 38.96875 56.785156 C 80.269531 88.101562 132.644531 87.886719 180.21875 72.378906 C 205.09375 64.273438 228.203125 51.5625 251.824219 40.597656 C 284.496094 25.425781 319.480469 3.867188 356.292969 0.9375 C 385.246094 -1.339844 412.910156 8.457031 435.027344 26.136719 C 460.394531 46.410156 484.792969 75.644531 517.777344 84.429688 C 550.070312 93.046875 582.738281 79.085938 612.90625 65.042969 C 643.074219 50.996094 672.921875 33.898438 706.269531 30.664062 C 753.964844 25.992188 796.726562 48.933594 841.140625 61.679688 C 865.253906 68.59375 888.253906 66.605469 910.683594 55.691406 C 928.59375 46.996094 949.011719 34.1875 959.113281 16.371094 L 959.113281 -0.75 Z M 0.886719 -0.75 " fill-opacity="0.5" fill-rule="nonzero"/></g><g clip-path="url(#faeef96890)"><path fill="#219ebc" d="M 0.886719 -0.75 L 0.886719 3.746094 C 120.609375 46.363281 251.695312 56.203125 380.847656 33.246094 C 415.183594 27.144531 448.105469 17.179688 482.746094 12.117188 C 529.859375 5.222656 572.566406 21.890625 614.949219 40.382812 C 662.007812 60.914062 708.378906 75.300781 760.441406 71.117188 C 829.535156 65.527344 898.152344 34.617188 959.113281 3.394531 L 959.113281 -0.75 Z M 0.886719 -0.75 " fill-opacity="1" fill-rule="nonzero"/></g></svg>